<svg xmlns="http://www.w3.org/2000/svg" viewBox="0 0 32 32" fill="none">
  <defs>
    <linearGradient id="grad" x1="0%" y1="0%" x2="100%" y2="100%">
      <stop offset="0%" style="stop-color:#6366f1"/>
      <stop offset="100%" style="stop-color:#8b5cf6"/>
    </linearGradient>
  </defs>
  <rect width="32" height="32" rx="8" fill="url(#grad)"/>
  <path d="M16 8C11.58 8 8 11.58 8 16s3.58 8 8 8 8-3.58 8-8-3.58-8-8-8zm0 14c-3.31 0-6-2.69-6-6s2.69-6 6-6 6 2.69 6 6-2.69 6-6 6z" fill="white" fill-opacity="0.3"/>
  <circle cx="16" cy="16" r="4" fill="white"/>
  <path d="M16 10v2M16 20v2M10 16h2M20 16h2" stroke="white" stroke-width="1.5" stroke-linecap="round"/>
</svg>
